<svg width="17" height="17" viewBox="0 0 17 17" fill="none" xmlns="http://www.w3.org/2000/svg">
<path d="M14.8336 7.99917H16.5003C16.5003 3.72417 13.2728 0.500008 8.99194 0.500008V2.16667C12.3769 2.16667 14.8336 4.61917 14.8336 7.99917Z" fill="#2570CA"/>
<path d="M9.00032 5.5C10.7528 5.5 11.5003 6.2475 11.5003 8H13.167C13.167 5.3125 11.6878 3.83334 9.00032 3.83334V5.5ZM11.852 10.0358C11.6919 9.8903 11.4814 9.81268 11.2652 9.81936C11.0489 9.82605 10.8437 9.91652 10.6928 10.0717L8.69865 12.1225C8.21865 12.0308 7.25365 11.73 6.26032 10.7392C5.26698 9.745 4.96615 8.7775 4.87698 8.30084L6.92615 6.30584C7.08149 6.15511 7.1721 5.94985 7.17878 5.73351C7.18547 5.51716 7.10772 5.3067 6.96198 5.14667L3.88282 1.76084C3.73702 1.6003 3.53438 1.50292 3.31794 1.48939C3.10151 1.47585 2.88831 1.54722 2.72365 1.68834L0.915317 3.23917C0.771242 3.38377 0.685249 3.57621 0.67365 3.78C0.66115 3.98834 0.422816 8.92334 4.24948 12.7517C7.58782 16.0892 11.7695 16.3333 12.9212 16.3333C13.0895 16.3333 13.1928 16.3283 13.2203 16.3267C13.4241 16.3153 13.6164 16.2289 13.7603 16.0842L15.3103 14.275C15.4515 14.1104 15.5231 13.8973 15.5097 13.6809C15.4963 13.4644 15.3991 13.2617 15.2387 13.1158L11.852 10.0358Z" fill="#2570CA"/>
</svg>
