<svg width="19" height="20" viewBox="0 0 19 20" fill="none" xmlns="http://www.w3.org/2000/svg">
<path d="M9.50001 2.08333C7.40867 2.11 5.41049 2.95264 3.93157 4.43156C2.45265 5.91048 1.61001 7.90865 1.58334 9.99999C1.59312 11.2183 1.88396 12.4179 2.43321 13.5054C2.98246 14.5929 3.7753 15.539 4.75001 16.27V16.3333H4.82918C6.16961 17.3605 7.81126 17.9172 9.50001 17.9172C11.1888 17.9172 12.8304 17.3605 14.1708 16.3333H14.25V16.27C15.2247 15.539 16.0176 14.5929 16.5668 13.5054C17.1161 12.4179 17.4069 11.2183 17.4167 9.99999C17.39 7.90865 16.5474 5.91048 15.0684 4.43156C13.5895 2.95264 11.5913 2.11 9.50001 2.08333ZM6.38876 15.4862C6.50433 14.957 6.79738 14.4831 7.21928 14.1433C7.64119 13.8035 8.1666 13.6181 8.70834 13.6179H10.2917C10.8334 13.6181 11.3588 13.8035 11.7807 14.1433C12.2026 14.4831 12.4957 14.957 12.6113 15.4862C11.6683 16.0411 10.5941 16.3336 9.50001 16.3336C8.40592 16.3336 7.33174 16.0411 6.38876 15.4862ZM13.9413 14.465C13.6401 13.7453 13.1331 13.1307 12.4837 12.6983C11.8344 12.2659 11.0718 12.035 10.2917 12.0346H8.70834C7.92822 12.035 7.1656 12.2659 6.51628 12.6983C5.86696 13.1307 5.35989 13.7453 5.05876 14.465C4.46554 13.8815 3.9931 13.1869 3.66845 12.4208C3.34379 11.6546 3.17329 10.832 3.16668 9.99999C3.18721 8.32667 3.86106 6.72766 5.04437 5.54436C6.22768 4.36105 7.82668 3.6872 9.50001 3.66666C11.1733 3.6872 12.7723 4.36105 13.9556 5.54436C15.139 6.72766 15.8128 8.32667 15.8333 9.99999C15.8267 10.832 15.6562 11.6546 15.3316 12.4208C15.0069 13.1869 14.5345 13.8815 13.9413 14.465Z" fill="#656E7A"/>
<path d="M9.5 5.25C9.08148 5.24025 8.66533 5.3155 8.27672 5.47118C7.88812 5.62687 7.53513 5.85977 7.23912 6.15579C6.9431 6.45181 6.7102 6.80479 6.55451 7.1934C6.39882 7.582 6.32358 7.99815 6.33333 8.41667C6.32358 8.83519 6.39882 9.25133 6.55451 9.63994C6.7102 10.0285 6.9431 10.3815 7.23912 10.6775C7.53513 10.9736 7.88812 11.2065 8.27672 11.3621C8.66533 11.5178 9.08148 11.5931 9.5 11.5833C9.91851 11.5931 10.3347 11.5178 10.7233 11.3621C11.1119 11.2065 11.4649 10.9736 11.7609 10.6775C12.0569 10.3815 12.2898 10.0285 12.4455 9.63994C12.6012 9.25133 12.6764 8.83519 12.6667 8.41667C12.6764 7.99815 12.6012 7.582 12.4455 7.1934C12.2898 6.80479 12.0569 6.45181 11.7609 6.15579C11.4649 5.85977 11.1119 5.62687 10.7233 5.47118C10.3347 5.3155 9.91851 5.24025 9.5 5.25ZM9.5 10C9.28937 10.0102 9.07895 9.9762 8.88224 9.90023C8.68553 9.82426 8.50688 9.70799 8.35778 9.55889C8.20867 9.40978 8.0924 9.23113 8.01643 9.03442C7.94046 8.83771 7.90648 8.62729 7.91666 8.41667C7.90648 8.20604 7.94046 7.99562 8.01643 7.79891C8.0924 7.6022 8.20867 7.42356 8.35778 7.27445C8.50688 7.12534 8.68553 7.00907 8.88224 6.9331C9.07895 6.85714 9.28937 6.82315 9.5 6.83333C9.71062 6.82315 9.92104 6.85714 10.1178 6.9331C10.3145 7.00907 10.4931 7.12534 10.6422 7.27445C10.7913 7.42356 10.9076 7.6022 10.9836 7.79891C11.0595 7.99562 11.0935 8.20604 11.0833 8.41667C11.0935 8.62729 11.0595 8.83771 10.9836 9.03442C10.9076 9.23113 10.7913 9.40978 10.6422 9.55889C10.4931 9.70799 10.3145 9.82426 10.1178 9.90023C9.92104 9.9762 9.71062 10.0102 9.5 10Z" fill="#656E7A"/>
</svg>
