<svg width="12" height="12" viewBox="0 0 12 12" fill="none" xmlns="http://www.w3.org/2000/svg">
<path d="M6 0C4.41498 0.0202135 2.90058 0.658844 1.77971 1.77971C0.658844 2.90058 0.0202135 4.41498 0 6C0.00740933 6.92335 0.227832 7.83253 0.644107 8.65675C1.06038 9.48098 1.66127 10.198 2.4 10.752V10.8H2.46C3.47591 11.5785 4.72011 12.0004 6 12.0004C7.27989 12.0004 8.52409 11.5785 9.54 10.8H9.6V10.752C10.3387 10.198 10.9396 9.48098 11.3559 8.65675C11.7722 7.83253 11.9926 6.92335 12 6C11.9798 4.41498 11.3412 2.90058 10.2203 1.77971C9.09942 0.658844 7.58502 0.0202135 6 0ZM3.642 10.158C3.72959 9.75687 3.95169 9.39773 4.27145 9.14018C4.59121 8.88262 4.98941 8.74213 5.4 8.742H6.6C7.01059 8.74213 7.40879 8.88262 7.72855 9.14018C8.04831 9.39773 8.27041 9.75687 8.358 10.158C7.64332 10.5785 6.8292 10.8002 6 10.8002C5.1708 10.8002 4.35668 10.5785 3.642 10.158ZM9.366 9.384C9.13778 8.83857 8.75347 8.37274 8.26135 8.04502C7.76924 7.71729 7.19125 7.54229 6.6 7.542H5.4C4.80875 7.54229 4.23076 7.71729 3.73865 8.04502C3.24653 8.37274 2.86222 8.83857 2.634 9.384C2.1844 8.94179 1.82634 8.41533 1.58029 7.83468C1.33424 7.25404 1.20501 6.63061 1.2 6C1.21556 4.7318 1.72627 3.51992 2.6231 2.6231C3.51992 1.72627 4.7318 1.21556 6 1.2C7.2682 1.21556 8.48008 1.72627 9.3769 2.6231C10.2737 3.51992 10.7844 4.7318 10.8 6C10.795 6.63061 10.6658 7.25404 10.4197 7.83468C10.1737 8.41533 9.8156 8.94179 9.366 9.384Z" fill="#495057"/>
<path d="M6 2.40002C5.68281 2.39263 5.36741 2.44966 5.07289 2.56765C4.77837 2.68565 4.51084 2.86216 4.28649 3.08651C4.06214 3.31086 3.88563 3.57839 3.76764 3.87291C3.64964 4.16743 3.59261 4.48283 3.6 4.80002C3.59261 5.11721 3.64964 5.43261 3.76764 5.72713C3.88563 6.02165 4.06214 6.28918 4.28649 6.51353C4.51084 6.73788 4.77837 6.91439 5.07289 7.03239C5.36741 7.15038 5.68281 7.20741 6 7.20002C6.31719 7.20741 6.63259 7.15038 6.92711 7.03239C7.22163 6.91439 7.48916 6.73788 7.71351 6.51353C7.93786 6.28918 8.11437 6.02165 8.23237 5.72713C8.35036 5.43261 8.40739 5.11721 8.4 4.80002C8.40739 4.48283 8.35036 4.16743 8.23237 3.87291C8.11437 3.57839 7.93786 3.31086 7.71351 3.08651C7.48916 2.86216 7.22163 2.68565 6.92711 2.56765C6.63259 2.44966 6.31719 2.39263 6 2.40002ZM6 6.00002C5.84037 6.00774 5.68089 5.98198 5.53181 5.92441C5.38272 5.86683 5.24733 5.77871 5.13432 5.6657C5.02131 5.55269 4.93319 5.4173 4.87562 5.26821C4.81804 5.11913 4.79228 4.95965 4.8 4.80002C4.79228 4.64039 4.81804 4.48091 4.87562 4.33183C4.93319 4.18274 5.02131 4.04735 5.13432 3.93434C5.24733 3.82133 5.38272 3.73321 5.53181 3.67563C5.68089 3.61806 5.84037 3.5923 6 3.60002C6.15963 3.5923 6.31911 3.61806 6.4682 3.67563C6.61728 3.73321 6.75268 3.82133 6.86568 3.93434C6.97869 4.04735 7.06681 4.18274 7.12439 4.33183C7.18196 4.48091 7.20772 4.64039 7.2 4.80002C7.20772 4.95965 7.18196 5.11913 7.12439 5.26821C7.06681 5.4173 6.97869 5.55269 6.86568 5.6657C6.75268 5.77871 6.61728 5.86683 6.4682 5.92441C6.31911 5.98198 6.15963 6.00774 6 6.00002Z" fill="#495057"/>
</svg>
