<svg width="17" height="14" viewBox="0 0 17 14" fill="none" xmlns="http://www.w3.org/2000/svg">
<path d="M15.3 0.388885H1.7C0.76245 0.388885 0 1.13016 0 2.04166V11.9583C0 12.8698 0.76245 13.6111 1.7 13.6111H15.3C16.2376 13.6111 17 12.8698 17 11.9583V2.04166C17 1.13016 16.2376 0.388885 15.3 0.388885ZM15.3 2.04166V2.46395L8.5 7.60657L1.7 2.46477V2.04166H15.3ZM1.7 11.9583V4.55719L7.9781 9.3048C8.12694 9.41846 8.31073 9.48025 8.5 9.48025C8.68927 9.48025 8.87306 9.41846 9.0219 9.3048L15.3 4.55719L15.3017 11.9583H1.7Z" fill="#656E7A"/>
</svg>
