<svg width="10" height="12" viewBox="0 0 10 12" fill="none" xmlns="http://www.w3.org/2000/svg">
<path d="M7.94118 3.72911C7.94118 4.62575 7.64706 5.82128 6.23529 6.29948C6.64706 5.28329 6.70588 4.2671 6.41176 3.31068C6 2.05538 4.64706 1.09897 3.70588 0.560983C3.47059 0.381655 3.05882 0.620759 3.11765 0.979415C3.11765 1.63695 2.94118 2.59337 1.94118 3.60956C0.647059 4.92463 0 6.29948 0 7.61456C0 9.34806 1.17647 11.5 3.52941 11.5C1.17647 9.10896 2.94118 7.0168 2.94118 7.0168C3.41176 10.5436 5.88235 11.5 7.05882 11.5C8.05882 11.5 10 10.7827 10 7.67433C10 5.82128 9.23529 4.38665 8.58824 3.54979C8.41177 3.25091 8 3.43023 7.94118 3.72911Z" fill="#656E7A"/>
</svg>
