<svg width="15" height="17" viewBox="0 0 15 17" fill="none" xmlns="http://www.w3.org/2000/svg">
<path d="M13.3333 9.8481V6.8C13.3333 4.06555 11.5125 1.76205 9.04583 1.0693C8.80167 0.442 8.205 0 7.5 0C6.795 0 6.19833 0.442 5.95417 1.0693C3.4875 1.7629 1.66667 4.06555 1.66667 6.8V9.8481L0.244167 11.299C0.166632 11.3778 0.105142 11.4715 0.0632378 11.5746C0.0213334 11.6778 -0.000157874 11.7884 8.73061e-07 11.9V13.6C8.73061e-07 13.8254 0.0877982 14.0416 0.244078 14.201C0.400359 14.3604 0.61232 14.45 0.833334 14.45H14.1667C14.3877 14.45 14.5996 14.3604 14.7559 14.201C14.9122 14.0416 15 13.8254 15 13.6V11.9C15.0002 11.7884 14.9787 11.6778 14.9368 11.5746C14.8949 11.4715 14.8334 11.3778 14.7558 11.299L13.3333 9.8481ZM13.3333 12.75H1.66667V12.2519L3.08917 10.8009C3.1667 10.7221 3.22819 10.6285 3.2701 10.5253C3.312 10.4222 3.33349 10.3116 3.33333 10.2V6.8C3.33333 4.45655 5.2025 2.55 7.5 2.55C9.7975 2.55 11.6667 4.45655 11.6667 6.8V10.2C11.6667 10.4261 11.7542 10.642 11.9108 10.8009L13.3333 12.2519V12.75ZM7.5 17C8.01608 17.0007 8.51955 16.8373 8.94041 16.5326C9.36127 16.228 9.67861 15.7971 9.84833 15.3H5.15167C5.32139 15.7971 5.63873 16.228 6.05959 16.5326C6.48045 16.8373 6.98392 17.0007 7.5 17Z" fill="#656E7A"/>
</svg>
