<svg width="44" height="44" viewBox="0 0 44 44" fill="none" xmlns="http://www.w3.org/2000/svg">
<path d="M13.5 22.001C13.5 21.4502 13.9504 21 14.5 21C15.0496 21 15.5 21.4502 15.5 22.001C15.5 22.5503 15.0512 23 14.5 23C13.9488 23 13.5 22.5503 13.5 22.001ZM12 22.001C12 23.3789 13.1206 24.5 14.5 24.5C15.8794 24.5 17 23.3789 17 22.001C17 20.6232 15.8794 19.5 14.5 19.5C13.1206 19.5 12 20.6232 12 22.001ZM21 22.001C21 21.4502 21.4504 21 22 21C22.5496 21 23 21.4502 23 22.001C23 22.5503 22.5512 23 22 23C21.4488 23 21 22.5503 21 22.001ZM19.5 22.001C19.5 23.3789 20.6206 24.5 22 24.5C23.3794 24.5 24.5 23.3789 24.5 22.001C24.5 20.6232 23.3794 19.5 22 19.5C20.6206 19.5 19.5 20.6232 19.5 22.001ZM32 22.001C32 22.8475 31.5771 23.597 30.9311 24.0493C30.5255 24.3332 30.032 24.5 29.5 24.5C28.968 24.5 28.4745 24.3332 28.0689 24.0493C27.4229 23.597 27 22.8475 27 22.001C27 20.6232 28.1206 19.5 29.5 19.5C30.8794 19.5 32 20.6232 32 22.001ZM29.5 23C30.0512 23 30.5 22.5503 30.5 22.001C30.5 21.4502 30.0496 21 29.5 21C28.9504 21 28.5 21.4502 28.5 22.001C28.5 22.5503 28.9488 23 29.5 23Z" fill="white"/>
</svg>
