<svg width="38" height="40" viewBox="0 0 38 40" fill="none" xmlns="http://www.w3.org/2000/svg">
<path d="M26 10H16C14.897 10 14 10.897 14 12V18H12C10.897 18 10 18.897 10 20V29C10 29.2652 10.1054 29.5196 10.2929 29.7071C10.4804 29.8946 10.7348 30 11 30H27C27.2652 30 27.5196 29.8946 27.7071 29.7071C27.8946 29.5196 28 29.2652 28 29V12C28 10.897 27.103 10 26 10ZM12 20H18V28H12V20ZM26 28H20V20C20 18.897 19.103 18 18 18H16V12H26V28Z" fill="white"/>
<path d="M18 14H20V16H18V14ZM22 14H24V16H22V14ZM22 18.031H24V20H22V18.031ZM22 22H24V24H22V22ZM14 22.001H16V24.001H14V22.001Z" fill="white"/>
</svg>
