<svg width="38" height="40" viewBox="0 0 38 40" fill="none" xmlns="http://www.w3.org/2000/svg">
<path d="M19 18C20.151 18 21 17.152 21 16C21 14.848 20.151 14 19 14C17.85 14 17 14.848 17 16C17 17.152 17.85 18 19 18ZM19 19C16.791 19 15 20.612 15 22.6V22.986H23V22.6C23 20.612 21.209 19 19 19Z" fill="white"/>
<path d="M26 10H12C10.897 10 10 10.897 10 12V25C10 26.103 10.897 27 12 27H16L19 30L22 27H26C27.103 27 28 26.103 28 25V12C28 10.897 27.103 10 26 10ZM21 25L19 27L17 25H12V12H26L26.002 25H21Z" fill="white"/>
</svg>
