<svg width="40" height="40" viewBox="0 0 40 40" fill="none" xmlns="http://www.w3.org/2000/svg">
<path d="M20 10C18.0222 10 16.0888 10.5865 14.4443 11.6853C12.7998 12.7841 11.5181 14.3459 10.7612 16.1732C10.0043 18.0004 9.8063 20.0111 10.1922 21.9509C10.578 23.8907 11.5304 25.6725 12.9289 27.0711C14.3275 28.4696 16.1093 29.422 18.0491 29.8079C19.9889 30.1937 21.9996 29.9957 23.8268 29.2388C25.6541 28.4819 27.2159 27.2002 28.3147 25.5557C29.4135 23.9112 30 21.9778 30 20C30 18.6868 29.7413 17.3864 29.2388 16.1732C28.7363 14.9599 27.9997 13.8575 27.0711 12.9289C26.1425 12.0003 25.0401 11.2638 23.8268 10.7612C22.6136 10.2587 21.3132 10 20 10ZM20 28C18.4178 28 16.871 27.5308 15.5554 26.6518C14.2398 25.7727 13.2145 24.5233 12.609 23.0615C12.0035 21.5997 11.845 19.9911 12.1537 18.4393C12.4624 16.8874 13.2243 15.462 14.3432 14.3431C15.462 13.2243 16.8874 12.4624 18.4393 12.1537C19.9911 11.845 21.5997 12.0035 23.0615 12.609C24.5233 13.2145 25.7727 14.2398 26.6518 15.5554C27.5308 16.871 28 18.4177 28 20C28 22.1217 27.1572 24.1566 25.6569 25.6569C24.1566 27.1571 22.1217 28 20 28Z" fill="white"/>
<path d="M20 19C18 19 18 18.37 18 18C18 17.63 18.7 17 20 17C21.3 17 21.39 17.64 21.4 18H23.4C23.3865 17.3188 23.1415 16.6624 22.7053 16.139C22.269 15.6155 21.6676 15.2561 21 15.12V14H19V15.09C17 15.42 16 16.71 16 18C16 19.12 16.52 21 20 21C22 21 22 21.68 22 22C22 22.32 21.38 23 20 23C18.16 23 18 22.14 18 22H16C16 22.92 16.66 24.55 19 24.92V26H21V24.92C23 24.58 24 23.29 24 22C24 20.88 23.48 19 20 19Z" fill="white"/>
</svg>
