<svg width="40" height="40" viewBox="0 0 40 40" fill="none" xmlns="http://www.w3.org/2000/svg">
<path d="M20 10C18.6863 9.99652 17.3849 10.2536 16.1712 10.7563C14.9574 11.2591 13.8555 11.9976 12.929 12.929C11.04 14.818 10 17.33 10 20C10 22.67 11.04 25.182 12.929 27.071C14.818 28.96 17.33 30 20 30C22.67 30 25.182 28.96 27.071 27.071C28.96 25.182 30 22.67 30 20C30 17.33 28.96 14.818 27.071 12.929C26.1445 11.9976 25.0426 11.2591 23.8288 10.7563C22.6151 10.2536 21.3137 9.99652 20 10ZM25.657 25.657C24.146 27.168 22.137 28 20 28C17.863 28 15.854 27.168 14.343 25.657C12.832 24.146 12 22.137 12 20C12 17.863 12.832 15.854 14.343 14.343C15.5967 13.0846 17.2367 12.2838 19 12.069V20C19 20.2652 19.1054 20.5196 19.2929 20.7071C19.4804 20.8946 19.7348 21 20 21H27.931C27.7162 22.7633 26.9154 24.4033 25.657 25.657ZM21 19V12.062C22.7638 12.2801 24.4035 13.0832 25.657 14.343C26.9175 15.596 27.7207 17.236 27.938 19H21Z" fill="white"/>
</svg>
