<svg width="12" height="12" viewBox="0 0 12 12" fill="none" xmlns="http://www.w3.org/2000/svg">
<path d="M3.87773 10.7347L9.37785 5.2346L6.7654 2.62215L1.26527 8.12227C1.18955 8.19809 1.13576 8.29298 1.10961 8.39689L0.5 11.5L3.60251 10.8904C3.70668 10.8643 3.80197 10.8105 3.87773 10.7347ZM11.1534 3.45903C11.3753 3.23705 11.5 2.93602 11.5 2.62215C11.5 2.30827 11.3753 2.00724 11.1534 1.78526L10.2147 0.846575C9.99276 0.624663 9.69173 0.5 9.37785 0.5C9.06398 0.5 8.76295 0.624663 8.54097 0.846575L7.60228 1.78526L10.2147 4.39772L11.1534 3.45903Z" fill="#656E7A"/>
</svg>
