<svg width="15" height="16" viewBox="0 0 15 16" fill="none" xmlns="http://www.w3.org/2000/svg">
<path d="M10.9264 15.5C11.1255 15.5011 11.3229 15.4626 11.5071 15.3866C11.6912 15.3107 11.8583 15.1988 11.9987 15.0575L14.031 13.0252C14.1707 12.8847 14.2491 12.6947 14.2491 12.4965C14.2491 12.2984 14.1707 12.1084 14.031 11.9679L11.0314 8.96817C10.8908 8.8285 10.7008 8.7501 10.5027 8.7501C10.3045 8.7501 10.1145 8.8285 9.97396 8.96817L8.77409 10.1605C7.94337 9.93905 7.174 9.53128 6.52433 8.96817C5.96273 8.31747 5.55516 7.54846 5.33196 6.71841L6.52433 5.51854C6.664 5.37803 6.7424 5.18796 6.7424 4.98984C6.7424 4.79173 6.664 4.60166 6.52433 4.46115L3.52465 1.46147C3.38414 1.3218 3.19407 1.2434 2.99596 1.2434C2.79784 1.2434 2.60777 1.3218 2.46726 1.46147L0.442478 3.50125C0.301217 3.64167 0.189339 3.80881 0.113373 3.99294C0.0374067 4.17706 -0.00112545 4.37446 2.50224e-05 4.57364C0.06806 7.45505 1.21945 10.205 3.22468 12.2753C5.295 14.2805 8.04495 15.4319 10.9264 15.5ZM2.99971 3.0588L4.942 5.00109L3.9746 5.96849C3.88298 6.05432 3.81436 6.16177 3.77506 6.281C3.73575 6.40024 3.72701 6.52743 3.74963 6.65092C4.02992 7.90356 4.62337 9.06464 5.47444 10.0256C6.43461 10.8777 7.59599 11.4713 8.84908 11.7504C8.9707 11.7758 9.09674 11.7706 9.21585 11.7353C9.33497 11.6999 9.44344 11.6355 9.53151 11.5479L10.4989 10.558L12.4412 12.5003L10.9414 14.0001C8.45442 13.9361 6.08151 12.9436 4.28957 11.2179C2.55944 9.42525 1.56407 7.04921 1.49987 4.55864L2.99971 3.0588ZM13.4986 7.25085H14.9984C15.0179 6.3592 14.8566 5.47284 14.5243 4.64518C14.192 3.81753 13.6956 3.06573 13.0649 2.43509C12.4343 1.80444 11.6825 1.30801 10.8548 0.97571C10.0272 0.643411 9.1408 0.482124 8.24915 0.501571V2.00141C8.945 1.97734 9.63837 2.09666 10.2862 2.35195C10.9339 2.60724 11.5223 2.99305 12.0146 3.48538C12.507 3.97772 12.8928 4.56607 13.148 5.21385C13.4033 5.86163 13.5227 6.555 13.4986 7.25085Z" fill="#656E7A"/>
<path d="M8.24916 5.00114C9.82399 5.00114 10.4989 5.67607 10.4989 7.2509H11.9988C11.9988 4.83615 10.6639 3.5013 8.24916 3.5013V5.00114Z" fill="#656E7A"/>
</svg>
