<svg width="24" height="24" viewBox="0 0 24 24" fill="none" xmlns="http://www.w3.org/2000/svg">
<path d="M17.5 10.5C17.5 6.63401 14.366 3.5 10.5 3.5C6.63401 3.5 3.5 6.63401 3.5 10.5C3.5 14.366 6.63401 17.5 10.5 17.5C14.366 17.5 17.5 14.366 17.5 10.5ZM15.9569 17.0173C14.4804 18.2549 12.5772 19 10.5 19C5.80558 19 2 15.1944 2 10.5C2 5.80558 5.80558 2 10.5 2C15.1944 2 19 5.80558 19 10.5C19 12.5771 18.255 14.4802 17.0175 15.9566L21.7806 20.7197C22.0735 21.0126 22.0735 21.4874 21.7806 21.7803C21.4877 22.0732 21.0128 22.0732 20.7199 21.7803L15.9569 17.0173Z" fill="#656E7A"/>
</svg>
