<svg width="12" height="12" viewBox="0 0 12 12" fill="none" xmlns="http://www.w3.org/2000/svg">
<path d="M11.4709 4.44901C11.4364 4.3472 11.3727 4.25774 11.2879 4.19168C11.203 4.12561 11.1007 4.08584 10.9935 4.07726L7.85796 3.82814L6.5011 0.824989C6.45789 0.728264 6.3876 0.64611 6.29872 0.588442C6.20985 0.530775 6.10618 0.500058 6.00023 0.5C5.89427 0.499942 5.79057 0.530545 5.70163 0.588114C5.61269 0.645684 5.54231 0.727761 5.49899 0.824439L4.14214 3.82814L1.00657 4.07726C0.901217 4.0856 0.800502 4.12412 0.716471 4.18819C0.63244 4.25227 0.568651 4.3392 0.532736 4.43858C0.496821 4.53795 0.4903 4.64557 0.513954 4.74856C0.537608 4.85154 0.590435 4.94553 0.666115 5.01928L2.98328 7.27783L2.16377 10.826C2.13889 10.9334 2.14687 11.0458 2.18667 11.1486C2.22646 11.2514 2.29625 11.3399 2.38697 11.4025C2.47768 11.4652 2.58514 11.4991 2.6954 11.5C2.80566 11.5008 2.91362 11.4685 3.00528 11.4072L6.00005 9.411L8.99481 11.4072C9.0885 11.4694 9.19899 11.5014 9.31141 11.499C9.42384 11.4965 9.53282 11.4597 9.62368 11.3934C9.71455 11.3272 9.78296 11.2347 9.81969 11.1285C9.85643 11.0222 9.85973 10.9072 9.82917 10.799L8.82321 7.27948L11.318 5.03468C11.4814 4.8873 11.5413 4.65743 11.4709 4.44901Z" fill="#656E7A"/>
</svg>
