<svg width="17" height="16" viewBox="0 0 17 16" fill="none" xmlns="http://www.w3.org/2000/svg">
<path d="M8.5 4.59987V8.84987H12.75V7.14987H10.2V4.59987H8.5Z" fill="#656E7A"/>
<path d="M16.3982 5.02229C16.0148 4.11284 15.4582 3.28661 14.7594 2.5896C13.7016 1.53183 12.357 0.807236 10.8919 0.505399C9.87495 0.298412 8.82673 0.298412 7.80979 0.505399C6.34327 0.805308 4.99755 1.53049 3.9406 2.59045C3.2435 3.2882 2.68713 4.11353 2.3018 5.02145C1.90324 5.96376 1.69857 6.97671 1.7 7.99984L1.70085 8.02109H0L2.55 11.3998L5.1 8.02109H3.40085L3.4 7.99984C3.39755 6.81441 3.75144 5.65561 4.41575 4.6738C4.84425 4.04028 5.3898 3.49443 6.02309 3.0656C6.66734 2.63159 7.38999 2.32729 8.15064 2.1697C9.69639 1.85188 11.3051 2.16088 12.6231 3.02877C13.9411 3.89665 14.8605 5.25239 15.1793 6.79794C15.3396 7.59004 15.3396 8.40624 15.1793 9.19834C15.0238 9.95963 14.7193 10.6827 14.2834 11.3259C14.0709 11.6412 13.8269 11.9379 13.5575 12.2065C13.0145 12.7488 12.3725 13.1819 11.6662 13.4823C11.3065 13.6344 10.9327 13.7505 10.5502 13.8291C9.75836 13.9894 8.94247 13.9894 8.15064 13.8291C7.39014 13.6732 6.66779 13.3691 6.02479 12.9341C5.70855 12.7204 5.4134 12.477 5.14334 12.2073L3.94145 13.4092C4.6513 14.1201 5.49442 14.6839 6.42251 15.0683C7.35059 15.4528 8.34542 15.6504 9.34999 15.6498C10.3726 15.6494 11.3848 15.4451 12.3275 15.0489C13.694 14.4707 14.8631 13.5081 15.6927 12.2779C16.5465 11.0147 17.0019 9.52451 17 7.99984C17.0021 6.97691 16.7974 5.96411 16.3982 5.02229Z" fill="#656E7A"/>
</svg>
